<svg width="24" height="20" viewBox="0 0 24 20" fill="none" xmlns="http://www.w3.org/2000/svg">
<path d="M1.2 10.8H22.8C23.1183 10.8 23.4235 10.6735 23.6485 10.4485C23.8736 10.2235 24 9.91824 24 9.6C24 9.28174 23.8736 8.97652 23.6485 8.75147C23.4235 8.52643 23.1183 8.4 22.8 8.4H1.2C0.88176 8.4 0.576479 8.52643 0.351479 8.75147C0.12648 8.97652 0 9.28174 0 9.6C0 9.91824 0.12648 10.2235 0.351479 10.4485C0.576479 10.6735 0.88176 10.8 1.2 10.8ZM1.2 2.4H22.8C23.1183 2.4 23.4235 2.27357 23.6485 2.04853C23.8736 1.82348 24 1.51826 24 1.2C24 0.881736 23.8736 0.576516 23.6485 0.351468C23.4235 0.126432 23.1183 0 22.8 0H1.2C0.88176 0 0.576479 0.126432 0.351479 0.351468C0.12648 0.576516 0 0.881736 0 1.2C0 1.51826 0.12648 1.82348 0.351479 2.04853C0.576479 2.27357 0.88176 2.4 1.2 2.4ZM1.2 19.2H22.8C23.1183 19.2 23.4235 19.0735 23.6485 18.8485C23.8736 18.6235 24 18.3182 24 18C24 17.6818 23.8736 17.3765 23.6485 17.1515C23.4235 16.9265 23.1183 16.8 22.8 16.8H1.2C0.88176 16.8 0.576479 16.9265 0.351479 17.1515C0.12648 17.3765 0 17.6818 0 18C0 18.3182 0.12648 18.6235 0.351479 18.8485C0.576479 19.0735 0.88176 19.2 1.2 19.2Z" fill="black"/>
</svg>
