<svg xmlns="http://www.w3.org/2000/svg" version="1.1" xmlns:xlink="http://www.w3.org/1999/xlink" width="512" height="512" x="0" y="0" viewBox="0 0 512 512" style="enable-background:new 0 0 512 512" xml:space="preserve" class=""><g><path d="M509.785 15.434A14.998 14.998 0 0 0 496.531 2.18c-118.703-13.184-219.89 34.3-302.43 119.265-23.62 24.317-44.109 50.055-61.597 74.895-29.598-1.203-62.414 12.187-85.68 35.453l-42.43 42.43a15.004 15.004 0 0 0-2.382 18.109 15.005 15.005 0 0 0 16.875 6.988c9.843-2.644 25.84-5.718 41.207-6.433 5.617-.262 10.285-.18 14.164.117-9.363 18.008-16.54 33.094-18.918 36.871a15.004 15.004 0 0 0 2.09 18.598l24.55 24.55c-35.73 48.73-36.32 73.688-36.195 77.223.262 7.488 6.102 14.504 15.774 14.504 8.375 0 32.394-3.555 76.12-36.027l25.825 25.824a15.007 15.007 0 0 0 18.719 2.012c4.039-2.598 18.238-9.473 35.265-18.371.282 12.69-1.441 31.328-5.18 56.59-2.124 14.327 15.294 22.952 25.446 12.804l42.43-42.43c21.878-21.879 34.566-54.375 33.628-84.859 26.168-18.285 53.391-39.855 78.81-64.781 84.155-82.528 130.179-182.95 117.163-300.078zM481.09 30.87c2.394 32.344-.16 63.695-7.602 94.035-18.48-5.82-36.547-17.254-52.863-33.566-16.375-16.38-27.832-34.52-33.629-53.067 30.328-7.332 61.7-9.816 94.094-7.402zM58.137 262.911l9.898-9.903c11.973-11.969 27.543-20.59 43.027-24.465a843.53 843.53 0 0 0-21.66 36.418c-9.824-2.168-20.746-2.57-31.265-2.05zm28.386 72.23c3.247-6.407 7.172-14.438 14.38-28.055l19.745 19.75c-7.347 7.883-13.98 15.371-19.957 22.469zm73.356-5.739c10.93-10.925 21.41-12.922 34.43-13.203-.286 12.688-2.32 23.524-13.215 34.418-46.57 46.57-78.492 67.367-97.582 76.649 9.418-19.457 30.27-51.766 76.367-97.864zm16.871 95.965-15.469-15.472c7.063-6 14.528-12.653 22.403-20.028l21.02 21.02c-13.821 7.379-19.587 10.156-27.954 14.48zm82.215 18.57-12.008 12.012c.973-14.55.637-25.152-.738-33.332a868.815 868.815 0 0 0 35.566-21.133c-3.578 15.86-11.62 31.258-22.82 42.454zm-26.953-48.167-26.895-26.899c19.903-21.898 19.16-43 19.16-67.652 0-8.285-6.715-15-15-15-23.03 0-45.195-1.235-67.652 19.164l-25.684-25.684c70.133-122.98 151.2-200.84 242.282-232.902 7.21 23.332 21.246 45.812 41.191 65.758 19.852 19.855 42.227 33.855 65.457 41.093-32.25 90.582-110.09 171.598-232.86 242.122zm0 0" fill="#adc4d7" opacity="1" data-original="#000000" class=""></path><path d="M378.2 133.766c-29.247-29.243-76.833-29.243-106.075 0-29.242 29.246-29.242 76.832 0 106.074 29.242 29.242 76.828 29.246 106.074 0 29.242-29.242 29.242-76.828 0-106.074zm-21.216 84.859c-17.546 17.547-46.101 17.547-63.644 0-17.547-17.547-17.547-46.098 0-63.645 17.543-17.542 46.094-17.546 63.644 0 17.547 17.547 17.547 46.098 0 63.645zm0 0" fill="#adc4d7" opacity="1" data-original="#000000" class=""></path></g></svg>