<svg width="512" height="398" viewBox="0 0 512 398" fill="none" xmlns="http://www.w3.org/2000/svg">
<path d="M506.04 180.988C498.258 168.441 484.508 160.941 469.258 160.941H129.695C112.863 160.941 97.5551 170.43 90.6841 185.121L0.870117 373.43C4.26012 387.219 17.1401 397.52 32.4801 397.52H393.75C401.323 397.52 408.746 395.409 415.186 391.425C421.626 387.441 426.829 381.741 430.21 374.965L507.84 219.371C513.969 207.059 513.29 192.711 506.04 180.988Z" fill="#ADC4D7"/>
<path d="M72.402 156.156C79.266 141.469 94.578 131.976 111.414 131.976H431.168V91.079C431.168 74.219 416.945 60.501 399.465 60.501H213.02C212.746 60.501 212.559 60.431 212.488 60.38L179.118 13.72C173.206 5.44 163.444 0.5 153.015 0.5H31.71C14.223 0.5 0 14.219 0 31.078V307.953L72.402 156.156Z" fill="#ADC4D7"/>
</svg>
