<svg xmlns="http://www.w3.org/2000/svg" version="1.1" xmlns:xlink="http://www.w3.org/1999/xlink" width="512" height="512" x="0" y="0" viewBox="0 0 32 32" style="enable-background:new 0 0 512 512" xml:space="preserve" class=""><g><path d="M15 10a1 1 0 0 1 1-1h3a1 1 0 0 1 0 2h-3a1 1 0 0 1-1-1zM26 22a1 1 0 0 1-1 1h-3a1 1 0 0 1 0-2h3a1 1 0 0 1 1 1zM26 14a1 1 0 0 1-1 1h-9a1 1 0 0 1 0-2h9a1 1 0 0 1 1 1zM26 18a1 1 0 0 1-1 1h-9a1 1 0 0 1 0-2h9a1 1 0 0 1 1 1z" fill="#adc4d7" opacity="1" data-original="#000000"></path><path d="M8 21a.999.999 0 0 0-.857.485L5.598 24.06A3.003 3.003 0 0 0 2 27c0 1.654 1.346 3 3 3s3-1.346 3-3c0-.723-.268-1.378-.695-1.897L8.566 23H11v4a1 1 0 0 0 1 1h17a1 1 0 0 0 1-1V10c0-.265-.108-.522-.293-.707l-4.999-4.999A1.007 1.007 0 0 0 24 4H12a1 1 0 0 0-1 1v4H8.566L7.305 6.897A2.976 2.976 0 0 0 8 5c0-1.654-1.346-3-3-3S2 3.346 2 5a3.003 3.003 0 0 0 3.598 2.94l1.545 2.575c.18.301.506.485.857.485h3v4H7.816A2.996 2.996 0 0 0 5 13c-1.654 0-3 1.346-3 3s1.346 3 3 3a2.996 2.996 0 0 0 2.816-2H11v4zm-3 7c-.551 0-1-.449-1-1s.449-1 1-1 1 .449 1 1-.449 1-1 1zM25 7.414 26.586 9H25zM13 6h10v4a1 1 0 0 0 1 1h4v15H13zM5 6c-.551 0-1-.449-1-1s.449-1 1-1 1 .449 1 1-.449 1-1 1zm0 11c-.551 0-1-.449-1-1s.449-1 1-1 1 .449 1 1-.449 1-1 1z" fill="#adc4d7" opacity="1" data-original="#000000"></path></g></svg>